HIERARCHY
ROOT Hips
{
	OFFSET -0.001795 -0.223333 0.028219
	CHANNELS 6 Xposition Yposition Zposition Zrotation Yrotation Xrotation 
	JOINT LeftUpLeg
	{
		OFFSET 0.069520 -0.091406 -0.006815
		CHANNELS 3 Zrotation Yrotation Xrotation
		JOINT LeftLeg
		{
			OFFSET 0.034277 -0.375199 -0.004496
			CHANNELS 3 Zrotation Yrotation Xrotation
			JOINT LeftFoot
			{
				OFFSET -0.013596 -0.397961 -0.043693
				CHANNELS 3 Zrotation Yrotation Xrotation
				JOINT LeftToe
				{
					OFFSET 0.026358 -0.055791 0.119288
					CHANNELS 3 Zrotation Yrotation Xrotation
					End Site
					{
						OFFSET 0.000000 0.000000 0.000000
					}
				}
			}
		}
	}
	JOINT RightUpLeg
	{
		OFFSET -0.067670 -0.090522 -0.004320
		CHANNELS 3 Zrotation Yrotation Xrotation
		JOINT RightLeg
		{
			OFFSET -0.038290 -0.382569 -0.008850
			CHANNELS 3 Zrotation Yrotation Xrotation
			JOINT RightFoot
			{
				OFFSET 0.015774 -0.398415 -0.042312
				CHANNELS 3 Zrotation Yrotation Xrotation
				JOINT RightToe
				{
					OFFSET -0.025372 -0.048144 0.123348
					CHANNELS 3 Zrotation Yrotation Xrotation
					End Site
					{
						OFFSET 0.000000 0.000000 0.000000
					}
				}
			}
		}
	}
	JOINT Spine
	{
		OFFSET -0.002533 0.108963 -0.026696
		CHANNELS 3 Zrotation Yrotation Xrotation
		JOINT Spine1
		{
			OFFSET 0.005487 0.135180 0.001092
			CHANNELS 3 Zrotation Yrotation Xrotation
			JOINT Spine2
			{
				OFFSET 0.001457 0.052922 0.025425
				CHANNELS 3 Zrotation Yrotation Xrotation
				JOINT Neck
				{
					OFFSET -0.002778 0.213870 -0.042857
					CHANNELS 3 Zrotation Yrotation Xrotation
					JOINT Head
					{
						OFFSET 0.005152 0.064970 0.051349
						CHANNELS 3 Zrotation Yrotation Xrotation
						End Site
						{
							OFFSET 0.000000 0.000000 0.000000
						}
					}
				}
				JOINT LeftShoulder
				{
					OFFSET 0.078845 0.121749 -0.034090
					CHANNELS 3 Zrotation Yrotation Xrotation
					JOINT LeftArm
					{
						OFFSET 0.090977 0.030469 -0.008868
						CHANNELS 3 Zrotation Yrotation Xrotation
						JOINT LeftForeArm
						{
							OFFSET 0.259612 -0.012772 -0.027456
							CHANNELS 3 Zrotation Yrotation Xrotation
							JOINT LeftHand
							{
								OFFSET 0.249234 0.008986 -0.001171
								CHANNELS 3 Zrotation Yrotation Xrotation
								End Site
								{
									OFFSET 0.000000 0.000000 0.000000
								}
							}
						}
					}
				}
				JOINT RightShoulder
				{
					OFFSET -0.081759 0.118833 -0.038615
					CHANNELS 3 Zrotation Yrotation Xrotation
					JOINT RightArm
					{
						OFFSET -0.096012 0.032551 -0.009143
						CHANNELS 3 Zrotation Yrotation Xrotation
						JOINT RightForeArm
						{
							OFFSET -0.253742 -0.013329 -0.021401
							CHANNELS 3 Zrotation Yrotation Xrotation
							JOINT RightHand
							{
								OFFSET -0.255298 0.007772 -0.005559
								CHANNELS 3 Zrotation Yrotation Xrotation
								End Site
								{
									OFFSET 0.000000 0.000000 0.000000
								}
							}
						}
					}
				}
			}
		}
	}
}
MOTION
Frames: 18
Frame Time: 0.050000
0.000000 0.925044 0.000000 -1.028080 -17.534163 -3.383940 4.061275 -0.402767 -18.898046 -6.909453 1.960643 13.822463 8.563378 17.012573 6.504240 0.000000 0.000000 0.000000 3.310611 -0.900378 8.175184 2.968658 -0.074880 5.003861 -6.021719 -11.188825 -5.319310 0.000000 0.000000 0.000000 1.733398 -0.257987 5.275975 -6.222593 2.893808 -1.739486 3.023514 8.149217 8.821556 4.900851 -1.575991 -20.451907 0.000000 0.000000 0.000000 -30.151099 -3.991535 0.465780 -44.619398 -2.642288 -4.916204 0.943481 -21.035125 0.722031 0.000000 0.000000 0.000000 23.448891 8.518430 2.278448 48.163975 12.565529 0.002920 2.248872 29.779685 1.489903 0.000000 0.000000 0.000000 
-0.011162 0.922833 0.030317 -1.641282 -19.262579 -2.530359 3.973296 -0.353700 -18.134611 -6.204651 1.301162 6.623752 7.653486 14.965941 11.202750 0.000000 0.000000 0.000000 4.495604 -1.122014 9.506549 1.342153 0.150750 5.758922 -5.906558 -10.464854 -5.506203 0.000000 0.000000 0.000000 1.278867 -0.193408 3.959060 -6.193972 2.743062 -3.034786 3.879271 8.734731 9.611558 4.818096 -1.337387 -23.013344 0.000000 0.000000 0.000000 -31.026412 -3.870808 0.687220 -45.533212 -1.643681 -5.517162 2.252963 -22.701527 0.574966 0.000000 0.000000 0.000000 22.084860 8.381482 2.049653 48.568891 13.223952 0.260293 0.442378 35.504374 1.212092 0.000000 0.000000 0.000000 
-0.020581 0.919571 0.062916 -1.409975 -19.730678 -2.326383 2.217798 -0.688229 -17.285845 -3.892527 0.847107 7.959645 8.027597 15.680289 9.830790 0.000000 0.000000 0.000000 2.899071 -1.012195 10.844664 2.246094 0.205450 8.824806 -5.485903 -8.331815 -7.260117 0.000000 0.000000 0.000000 1.001748 -0.146184 2.956519 -6.090600 2.608659 -3.898330 2.376695 8.644999 10.088713 6.160117 -2.449639 -20.297075 0.000000 0.000000 0.000000 -29.946476 -4.105427 0.998016 -46.515059 -1.837982 -5.620385 3.291230 -19.967419 0.332841 0.000000 0.000000 0.000000 23.070757 8.673425 2.136567 47.778221 15.503335 1.101804 -3.793762 38.069855 -0.080036 0.000000 0.000000 0.000000 
-0.027837 0.919127 0.096806 -1.075453 -20.097176 -3.121760 1.796203 -0.716946 -14.992409 -5.647279 1.318235 8.434149 8.993049 17.153818 11.631656 0.000000 0.000000 0.000000 2.035742 -0.869595 10.681587 2.954501 0.451331 14.301252 -6.488529 -11.714669 -5.727736 0.000000 0.000000 0.000000 0.284438 -0.071706 1.540103 -7.076953 3.078493 -3.812480 3.849829 7.651158 11.551522 4.742603 -1.836398 -20.349141 0.000000 0.000000 0.000000 -30.794408 -4.305999 1.811078 -46.248766 -2.985695 -5.486050 4.348279 -18.777684 0.192617 0.000000 0.000000 0.000000 21.091564 10.957316 3.061391 45.878826 18.358116 2.092638 -8.986124 41.628734 -2.176137 0.000000 0.000000 0.000000 
-0.031739 0.922641 0.129975 -0.639422 -19.684529 -3.900018 0.152656 -0.907061 -12.622366 -5.034112 1.214972 9.347269 8.481143 16.599519 9.950133 0.000000 0.000000 0.000000 -0.793137 -0.359634 7.214465 6.434795 0.466124 24.952106 -6.126178 -12.453234 -3.184046 0.000000 0.000000 0.000000 -0.652127 -0.047105 1.207042 -6.015438 2.516143 -4.653959 2.734719 7.469549 12.191312 5.936731 -2.698835 -19.098195 0.000000 0.000000 0.000000 -30.910063 -5.427422 2.615840 -45.989296 -2.577263 -5.699707 3.300412 -19.670289 0.373180 0.000000 0.000000 0.000000 21.649783 10.883839 3.062353 41.585576 21.613466 2.805958 -15.788971 49.016335 -5.697417 0.000000 0.000000 0.000000 
-0.032685 0.927058 0.160650 -0.078511 -20.665245 -4.379932 -0.736468 -0.855510 -9.758380 -5.159048 1.256330 8.938536 8.722637 17.211578 8.842013 0.000000 0.000000 0.000000 -4.870115 0.286802 0.502735 11.385363 0.018545 37.894399 -4.526090 -12.527377 4.892132 0.000000 0.000000 0.000000 -0.684337 -0.030141 0.687594 -5.948488 2.514636 -4.195021 2.269671 7.454902 11.779846 5.329228 -2.469288 -18.232452 0.000000 0.000000 0.000000 -30.942842 -6.524636 3.539788 -47.121381 -2.117175 -6.018707 1.951561 -22.222016 0.694816 0.000000 0.000000 0.000000 19.531417 13.449942 4.378554 38.368474 25.127192 3.585297 -37.123148 55.576309 -18.211972 0.000000 0.000000 0.000000 
-0.033055 0.929964 0.188763 -0.209571 -19.494292 -4.612609 -1.809497 -0.775659 -7.160980 -4.056184 0.911521 8.299840 7.847301 15.969539 7.496089 0.000000 0.000000 0.000000 -8.504795 0.611891 -4.221259 15.828008 -1.654817 45.433037 -5.070976 -15.221908 10.793480 0.000000 0.000000 0.000000 0.008990 -0.038355 0.800263 -5.913674 2.537504 -3.915498 1.894632 6.442425 10.459306 5.767272 -2.812456 -17.508191 0.000000 0.000000 0.000000 -30.442426 -6.822589 3.724247 -47.701742 -1.466790 -6.218199 -0.352157 -25.293091 1.302942 0.000000 0.000000 0.000000 16.310027 13.749392 4.475121 34.756583 31.311806 4.803437 -61.613841 55.928845 -33.055727 0.000000 0.000000 0.000000 
-0.034286 0.932112 0.213959 0.109296 -18.906711 -3.989651 -2.805737 -0.709857 -5.653657 -2.956257 0.599419 7.320996 6.964641 14.525109 6.338712 0.000000 0.000000 0.000000 -10.124906 0.748055 -7.812894 15.516403 -1.674383 44.972792 -7.910226 -19.982645 8.918557 0.000000 0.000000 0.000000 0.655887 0.026580 -0.558635 -6.153200 2.701809 -3.358989 1.451518 6.358199 9.697180 5.639893 -2.774179 -16.596366 0.000000 0.000000 0.000000 -30.306270 -7.414786 3.921379 -47.283186 -1.927365 -5.873988 -1.959703 -26.061401 1.679696 0.000000 0.000000 0.000000 13.373645 15.189678 5.255532 28.676134 37.093687 4.819963 -76.556666 48.023379 -36.368931 0.000000 0.000000 0.000000 
-0.037062 0.934720 0.235688 0.255967 -17.745282 -3.796098 -3.696616 -0.582593 -4.052448 -1.828749 0.310292 6.394992 6.610585 13.968830 6.121756 0.000000 0.000000 0.000000 -8.923181 0.722338 -8.233600 10.975710 -0.265031 38.175880 -8.916627 -21.206500 3.904383 0.000000 0.000000 0.000000 0.587640 0.047418 -0.970092 -5.988927 2.607982 -3.687239 1.419738 6.523561 9.767897 6.530962 -3.098283 -17.774840 0.000000 0.000000 0.000000 -29.134415 -8.041258 3.993030 -48.457792 -2.111628 -5.820367 -1.422421 -28.153122 1.682164 0.000000 0.000000 0.000000 10.453858 16.713677 6.020078 22.443074 43.146066 4.118406 -86.760203 39.515917 -34.716947 0.000000 0.000000 0.000000 
-0.041652 0.936316 0.254133 0.291886 -16.873540 -3.550778 -3.891664 -0.370873 -2.314913 -1.230162 0.165221 5.279970 5.833716 12.619338 4.208327 0.000000 0.000000 0.000000 -7.201035 0.698203 -7.984329 5.994887 0.735208 28.801299 -7.775595 -17.967854 -0.281972 0.000000 0.000000 0.000000 1.096800 0.087141 -1.559003 -6.646259 2.903493 -3.891887 1.423399 7.114782 9.441789 7.535384 -3.711826 -16.863694 0.000000 0.000000 0.000000 -28.472390 -8.221981 3.659371 -49.123839 -2.870801 -5.439168 -1.023069 -28.859166 1.586529 0.000000 0.000000 0.000000 8.221978 18.804990 6.968178 14.135598 46.488286 1.767472 -91.809066 31.420052 -29.251046 0.000000 0.000000 0.000000 
-0.047572 0.937774 0.269476 0.494313 -14.590449 -3.256125 -3.516144 -0.156403 -0.822534 -1.094955 0.119014 3.617295 4.993015 11.056368 4.939343 0.000000 0.000000 0.000000 -6.673977 0.600839 -6.619030 4.226327 0.411089 20.030673 -6.404536 -14.898978 -0.478762 0.000000 0.000000 0.000000 1.058032 0.105578 -1.913266 -7.025424 3.189642 -2.866911 0.946963 6.961680 7.980135 8.504130 -4.066355 -17.219662 0.000000 0.000000 0.000000 -27.639250 -8.785111 3.421908 -49.344277 -2.838773 -5.181493 -0.352929 -28.772815 1.323383 0.000000 0.000000 0.000000 6.991344 19.328529 7.264389 6.555402 48.986593 -0.774161 -95.192096 25.535848 -24.357862 0.000000 0.000000 0.000000 
-0.054010 0.938819 0.281795 0.349222 -12.485232 -3.265849 -2.745500 -0.060385 -0.223574 -1.680585 0.206139 3.244849 4.382778 9.931734 4.731703 0.000000 0.000000 0.000000 -5.998758 0.471963 -4.646352 3.906082 0.149428 15.781733 -6.283505 -15.094732 0.879470 0.000000 0.000000 0.000000 0.871827 0.097674 -1.850412 -6.700716 3.081762 -2.469304 0.401429 7.619249 7.488765 10.134281 -4.920564 -16.866298 0.000000 0.000000 0.000000 -27.734558 -9.886353 3.347145 -48.651220 -2.744865 -4.893046 0.600527 -28.296778 0.950167 0.000000 0.000000 0.000000 7.390292 18.972922 7.427959 -0.252887 49.028245 -3.190968 -97.151495 23.251484 -22.140719 0.000000 0.000000 0.000000 
-0.060124 0.938878 0.291351 0.367818 -10.852829 -2.956744 -2.195461 0.016914 0.317957 -1.591127 0.180145 3.123896 3.925410 8.912030 3.132374 0.000000 0.000000 0.000000 -5.846341 0.423711 -3.996021 3.928762 0.002037 13.758178 -5.621161 -14.282988 2.885752 0.000000 0.000000 0.000000 0.631145 0.103133 -2.061891 -6.458161 2.985714 -2.300073 -0.248088 7.564161 6.743403 10.281407 -5.338417 -14.550860 0.000000 0.000000 0.000000 -26.329221 -9.697547 2.842074 -49.362625 -2.982537 -4.713024 1.311164 -26.511941 0.666783 0.000000 0.000000 0.000000 5.660056 20.083626 7.799459 -0.842760 47.567822 -3.173683 -98.852342 21.871472 -20.918277 0.000000 0.000000 0.000000 
-0.065590 0.938699 0.298671 0.306854 -9.944816 -2.507578 -1.762970 0.061087 0.647796 -1.283983 0.132651 2.410153 3.834914 8.850941 3.888611 0.000000 0.000000 0.000000 -5.105309 0.364471 -3.156255 3.468735 -0.016857 11.566886 -5.473662 -13.975126 2.901853 0.000000 0.000000 0.000000 0.719156 0.125370 -2.468806 -6.177081 2.864720 -2.139845 -0.707398 7.977731 6.951925 11.037970 -5.411835 -16.153771 0.000000 0.000000 0.000000 -26.537063 -10.893704 3.212310 -49.336564 -2.666082 -4.733583 3.443710 -25.854437 0.121252 0.000000 0.000000 0.000000 6.614567 19.576132 7.859252 -2.114231 47.110579 -3.534440 -101.151928 22.977039 -22.717861 0.000000 0.000000 0.000000 
-0.070109 0.937997 0.304040 0.295410 -9.683105 -2.319783 -1.331336 0.087455 0.867746 -1.609289 0.181935 2.355470 3.826442 8.777667 3.419437 0.000000 0.000000 0.000000 -5.107792 0.329645 -2.493799 4.047075 -0.151797 10.770407 -5.952636 -14.999169 2.978141 0.000000 0.000000 0.000000 0.975053 0.143946 -2.711764 -6.693285 3.118411 -2.037508 0.015390 7.645833 7.328667 10.518567 -5.138252 -16.102971 0.000000 0.000000 0.000000 -27.494806 -10.350785 2.993851 -48.709088 -2.854635 -4.645059 3.769357 -24.382899 0.068699 0.000000 0.000000 0.000000 6.431527 19.512130 7.763393 -1.022446 47.368927 -3.202600 -103.521269 23.203852 -24.016975 0.000000 0.000000 0.000000 
-0.073800 0.937224 0.308399 0.210120 -9.066294 -2.054323 -0.959867 0.130993 1.261807 -1.263763 0.130077 2.049644 3.452724 7.983214 3.004454 0.000000 0.000000 0.000000 -4.782739 0.303244 -2.200706 4.377837 -0.230791 10.490655 -6.354553 -15.820431 2.833013 0.000000 0.000000 0.000000 0.890804 0.145290 -2.793605 -6.541338 3.030374 -2.259622 0.336384 7.421951 7.865734 9.992764 -5.045942 -14.960709 0.000000 0.000000 0.000000 -28.167222 -10.163042 2.867981 -48.322051 -2.493510 -4.774613 4.092307 -24.022019 0.005373 0.000000 0.000000 0.000000 7.002722 19.549022 7.871744 -0.086915 47.133920 -2.879453 -105.589366 23.492656 -25.213979 0.000000 0.000000 0.000000 
-0.076632 0.936617 0.312047 0.206402 -8.585200 -1.919371 -0.885680 0.158205 1.515330 -1.062779 0.103084 1.763479 3.382103 7.785101 2.619362 0.000000 0.000000 0.000000 -4.451825 0.279224 -1.966713 4.325826 -0.235360 10.383582 -6.639984 -16.323696 2.304812 0.000000 0.000000 0.000000 0.771523 0.153130 -3.002615 -6.527660 3.037079 -2.081246 0.734011 7.318989 8.100513 9.818047 -4.963548 -14.798234 0.000000 0.000000 0.000000 -27.887111 -9.940714 2.704973 -48.820090 -1.779906 -5.117546 3.315559 -23.694749 0.164540 0.000000 0.000000 0.000000 7.663226 19.141566 7.807881 1.093115 47.528505 -2.497273 -107.607127 24.390425 -27.176220 0.000000 0.000000 0.000000 
-0.078559 0.936435 0.315395 -0.016547 -8.045777 -1.631665 -0.615796 0.206918 1.996888 -0.563865 0.049308 0.908578 2.988397 7.064309 2.945002 0.000000 0.000000 0.000000 -3.999972 0.244540 -1.602934 4.281248 -0.250838 9.875158 -6.909473 -16.907844 2.288900 0.000000 0.000000 0.000000 0.697485 0.168453 -3.339505 -6.229520 2.879243 -2.351136 1.038405 7.024467 8.782842 9.066912 -4.647758 -14.033220 0.000000 0.000000 0.000000 -27.774442 -9.390710 2.417060 -49.102676 -1.158162 -5.463293 2.622552 -23.283299 0.313173 0.000000 0.000000 0.000000 8.206970 19.316890 7.961290 1.690624 47.366828 -2.317627 -109.491770 24.350350 -28.039249 0.000000 0.000000 0.000000 
